<svg id="Capa_1" enable-background="new 0 0 512 512" height="512" viewBox="0 0 512 512" width="512" xmlns="http://www.w3.org/2000/svg"><g><path d="m247.896 512c-62.822 0-121.656-33.635-153.545-87.781-10.207-17.332-11.079-38.488-2.334-56.595 8.737-18.088 25.832-30.544 45.728-33.32 23.999-3.346 47.61 8.134 60.153 29.258 10.666 17.96 30.297 28.823 51.223 28.426 30.267-.609 55.2-24.72 56.766-54.889.838-16.146-4.801-31.463-15.879-43.131-11.09-11.681-26.045-18.113-42.11-18.113-27.367 0-36.66 3.583-50.729 9.916-1.145.515-1.925.89-2.267 1.058-20.125 10.488-44.104 8.725-62.628-4.624-18.537-13.359-27.708-35.806-23.935-58.58l28.734-173.432c4.818-29.084 29.712-50.193 59.193-50.193h145.046c16.216 0 31.409 6.368 42.78 17.931 11.37 11.561 17.482 26.863 17.211 43.088-.543 32.522-27.787 58.981-60.732 58.981h-93.428l-5.95 35.911c2.187-.038 4.418-.057 6.703-.057 48.586 0 95.654 20.225 129.135 55.488 33.962 35.771 51.255 82.641 48.694 131.976-4.811 92.695-81.321 166.772-174.183 168.645-1.209.024-2.43.037-3.635.037-.003 0-.007 0-.011 0zm-101.925-148.269c-1.354 0-2.716.094-4.082.284-10.095 1.408-18.427 7.479-22.859 16.657-4.441 9.194-4.014 19.518 1.171 28.322 26.522 45.034 75.456 73.009 127.705 73.005 1.005 0 2.022-.011 3.03-.031 77.213-1.556 140.829-63.142 144.829-140.205 2.13-41.038-12.249-80.021-40.49-109.765-27.843-29.325-66.981-46.145-107.379-46.145-8.482 0-16.119.278-23.347.852-4.598.361-9.112-1.408-12.233-4.807-3.122-3.399-4.505-8.046-3.75-12.599l11.06-66.753c1.199-7.237 7.46-12.546 14.798-12.546h106.147c16.677 0 30.465-13.226 30.736-29.482.136-8.117-2.92-15.771-8.604-21.552-5.687-5.781-13.283-8.966-21.391-8.966h-145.046c-14.74 0-27.188 10.555-29.596 25.096l-28.734 173.433c-1.897 11.448 2.654 22.69 11.877 29.337 9.291 6.694 21.291 7.579 31.315 2.311.102-.053.203-.105.306-.156.427-.212 1.616-.793 3.419-1.605 16.856-7.587 30.35-12.56 63.044-12.56 24.374 0 47.056 9.751 63.866 27.457 16.799 17.694 25.353 40.899 24.083 65.342-2.377 45.801-40.205 82.402-86.117 83.328-31.699.626-61.455-15.869-77.627-43.103-5.632-9.487-15.587-15.149-26.131-15.149z"/></g></svg>