<svg id="Capa_1" enable-background="new 0 0 512.016 512.016" height="512" viewBox="0 0 512.016 512.016" width="512" xmlns="http://www.w3.org/2000/svg"><g><g><path d="m490.031 315.111c-2.549-3.997-2.654-10.772 1.131-15.572 4.21-6.568 5.467-14.657 3.448-22.193s-7.152-13.913-14.082-17.495c-5.026-1.933-9.777-8.117-8.669-15.014.363-7.793-2.593-15.427-8.109-20.944-5.517-5.517-13.15-8.477-20.945-8.11-5.318.838-12.524-2.144-15.012-8.668-3.583-6.931-9.96-12.063-17.496-14.083-7.537-2.02-15.625-.763-22.192 3.448-4.185 3.386-11.919 4.408-17.336 0-6.568-4.21-14.657-5.466-22.193-3.448-7.536 2.02-13.913 7.152-17.497 14.083-1.931 5.027-8.127 9.773-15.013 8.667-7.786-.361-15.426 2.594-20.943 8.11-5.517 5.517-8.473 13.15-8.11 20.943.839 5.319-2.142 12.525-8.668 15.014-6.93 3.583-12.063 9.96-14.083 17.496-2.019 7.536-.762 15.625 3.448 22.192 3.386 4.187 4.409 11.919 0 17.336-4.21 6.568-5.467 14.657-3.448 22.193 2.02 7.536 7.152 13.913 14.083 17.496 5.027 1.932 9.773 8.117 8.667 15.013-.363 7.793 2.593 15.427 8.11 20.944 6.657 7.145 16.657 8.216 26.836 8.419h-212.166c-7.328 0-13.29-5.962-13.29-13.29v-97.341h11.846c4.142 0 7.5-3.358 7.5-7.5s-3.358-7.5-7.5-7.5h-11.846v-172.111h11.846c4.142 0 7.5-3.358 7.5-7.5s-3.358-7.5-7.5-7.5h-11.846v-59.906c0-7.328 5.962-13.29 13.29-13.29h276.79c7.323 0 13.28 5.962 13.28 13.29v136.108c0 4.142 3.358 7.5 7.5 7.5s7.5-3.358 7.5-7.5v-136.108c0-15.599-12.687-28.29-28.28-28.29h-276.79c-15.599 0-28.29 12.691-28.29 28.29v2.99h-6.36c-15.599 0-28.29 12.687-28.29 28.28v29.391c-17.315 3.508-30.39 18.843-30.39 37.177s13.075 33.669 30.39 37.177v112.759c-17.315 3.508-30.39 18.843-30.39 37.177s13.075 33.669 30.39 37.177v68.511c0 15.594 12.691 28.28 28.29 28.28h218.552c4.142 0 7.5-3.358 7.5-7.5s-3.358-7.5-7.5-7.5h-218.552c-7.328 0-13.29-5.958-13.29-13.28v-128.62h19.65v97.341c0 15.599 12.69 28.29 28.29 28.29h212.98v77.45c-.015 9.301 7.818 18.548 18.6 18.625 3.294 0 6.583-.896 9.561-2.686l28.499-17.112 28.501 17.113c5.823 3.494 12.827 3.582 18.736.237 5.906-3.344 9.433-9.392 9.433-16.178v-92.219c8.275-.763 20.588-.548 27.648-8.651 5.517-5.517 8.472-13.15 8.11-20.942-.84-5.319 2.141-12.526 8.668-15.014 6.93-3.583 12.063-9.959 14.083-17.495s.763-15.625-3.448-22.194zm-414.889-268.831h6.36v41.916h-19.65v-28.636c0-7.323 5.962-13.28 13.29-13.28zm-43.68 266.962c0-10.003 6.44-18.526 15.39-21.653v43.305c-8.95-3.127-15.39-11.649-15.39-21.652zm30.39-37.933v-143.161c0-4.142-3.358-7.5-7.5-7.5s-7.5 3.358-7.5 7.5v15.633c-8.95-3.127-15.39-11.649-15.39-21.652 0-12.646 10.288-22.933 22.933-22.933h27.107v172.113zm357.426 221.206c-.549.311-2.003.928-3.625-.045l-32.36-19.43c-2.376-1.427-5.346-1.427-7.722 0l-32.361 19.431c-1.74.561-3.954 1.537-5.438-3.081v-75.694c3.109 2.643 6.789 4.61 10.803 5.685 7.534 2.019 15.624.763 22.194-3.449 12.446-9.684 24.457 9.493 39.528 3.449 4.015-1.076 7.696-3.043 10.806-5.688v75.696c-.001 1.89-1.277 2.816-1.825 3.126zm60.843-161.329c-.943 3.52-3.245 6.379-6.482 8.053-10.526 4.513-18.228 16.788-16.764 29.036.169 3.64-1.156 7.063-3.733 9.64s-5.988 3.911-9.641 3.733c-11.223-1.182-23.758 4.826-29.035 16.764-1.673 3.237-4.533 5.539-8.053 6.482-3.521.943-7.147.379-10.215-1.587-9.132-6.717-23.074-7.632-33.527 0-3.068 1.967-6.695 2.531-10.215 1.587-3.52-.943-6.379-3.245-8.052-6.481-4.499-10.205-15.974-18.156-29.036-16.764-3.643.164-7.063-1.157-9.64-3.733s-3.902-6-3.733-9.641c1.353-11.371-5.424-24.178-16.764-29.035-3.237-1.673-5.539-4.533-6.482-8.053s-.379-7.147 1.587-10.215c6.81-9.081 7.395-23.653 0-33.528-1.967-3.067-2.53-6.695-1.587-10.215s3.245-6.379 6.483-8.053c10.525-4.513 18.227-16.788 16.763-29.035-.169-3.641 1.157-7.064 3.733-9.641 2.577-2.577 6.016-3.891 9.639-3.733 11.371 1.361 24.18-5.423 29.037-16.763 1.673-3.237 4.533-5.539 8.053-6.482 3.52-.945 7.148-.379 10.214 1.586 9.082 6.811 23.654 7.395 33.528 0 3.067-1.966 6.694-2.532 10.214-1.587 3.52.943 6.38 3.245 8.054 6.483 4.513 10.523 16.779 18.231 29.035 16.763 3.649-.163 7.064 1.157 9.641 3.733s3.902 6 3.733 9.641c-1.354 11.372 5.425 24.178 16.763 29.035 3.237 1.673 5.539 4.533 6.482 8.053s.379 7.147-1.587 10.215c-6.809 9.081-7.396 23.652 0 33.526 1.967 3.068 2.531 6.696 1.587 10.216z"/><path d="m379.436 227.645c-44.422 0-80.563 36.14-80.563 80.563s36.141 80.563 80.563 80.563 80.563-36.141 80.563-80.563-36.141-80.563-80.563-80.563zm0 146.125c-36.151 0-65.563-29.412-65.563-65.563s29.412-65.563 65.563-65.563 65.563 29.411 65.563 65.563-29.412 65.563-65.563 65.563z"/><path d="m411.125 290.17-13.314-4.143-7.709-11.619c-2.277-3.433-6.096-5.518-10.215-5.58-4.112-.06-7.998 1.909-10.376 5.271l-8.055 11.382-13.433 3.742c-3.968 1.105-7.132 4.093-8.463 7.991s-.656 8.196 1.807 11.497l8.336 11.178-.593 13.932c-.175 4.115 1.688 8.046 4.984 10.517 3.295 2.471 7.592 3.157 11.493 1.835l13.207-4.474 13.066 4.869c2.694.999 7.113 1.317 11.542-1.49 3.368-2.371 5.349-6.245 5.297-10.364l-.174-13.942 8.668-10.923c2.561-3.227 3.364-7.503 2.15-11.439-1.213-3.937-4.286-7.017-8.218-8.24zm-14.905 21.978c-1.779 2.242-2.739 5.053-2.704 7.915l.14 11.165-10.465-3.899c-1.401-.521-2.879-.783-4.358-.783-1.354 0-2.709.219-4.003.658l-10.576 3.583.475-11.158c.121-2.86-.755-5.698-2.465-7.991l-6.675-8.951 10.753-2.995c2.76-.768 5.19-2.479 6.843-4.815l6.45-9.115 6.174 9.305c1.582 2.384 3.958 4.166 6.69 5.017h.002l10.662 3.318z"/><path d="m353.057 164.062c4.142 0 7.5-3.358 7.5-7.5s-3.358-7.5-7.5-7.5h-12.892l3.732-69.792c.225-4.207-1.308-8.372-4.206-11.429s-6.976-4.81-11.188-4.81h-38.237c-4.212 0-8.29 1.753-11.188 4.811s-4.431 7.223-4.206 11.429l1.686 31.53c-7.025-5.367-15.792-8.565-25.295-8.565h-48.019c-23.022 0-41.752 18.73-41.752 41.752v5.075h-18.612c-4.142 0-7.5 3.358-7.5 7.5s3.358 7.5 7.5 7.5h210.177zm-62.791-86.031h38.237c-.022.042.384-.023.416.438l-3.775 70.592h-31.518l-3.774-70.593c-.001-.37.366-.437.414-.437zm-113.773 71.031v-5.075c0-14.751 12.001-26.752 26.752-26.752h48.019c14.751 0 26.752 12.001 26.752 26.752v5.075z"/><path d="m142.881 227.186h66.362c4.142 0 7.5-3.358 7.5-7.5s-3.358-7.5-7.5-7.5h-66.362c-4.142 0-7.5 3.358-7.5 7.5s3.358 7.5 7.5 7.5z"/><path d="m239.023 275.309h-96.142c-4.142 0-7.5 3.358-7.5 7.5s3.358 7.5 7.5 7.5h96.142c4.142 0 7.5-3.358 7.5-7.5s-3.358-7.5-7.5-7.5z"/><path d="m239.023 305.01h-96.142c-4.142 0-7.5 3.358-7.5 7.5s3.358 7.5 7.5 7.5h96.142c4.142 0 7.5-3.358 7.5-7.5s-3.358-7.5-7.5-7.5z"/><path d="m239.023 334.71h-45.425c-4.142 0-7.5 3.358-7.5 7.5s3.358 7.5 7.5 7.5h45.425c4.142 0 7.5-3.358 7.5-7.5s-3.358-7.5-7.5-7.5z"/><path d="m142.881 334.71c-4.142 0-7.5 3.358-7.5 7.5s3.358 7.5 7.5 7.5h15.719c4.142 0 7.5-3.358 7.5-7.5s-3.358-7.5-7.5-7.5z"/><path d="m212.766 87.74c3.051-3.051 3.051-7.996 0-11.047-3.05-3.05-7.996-3.05-11.047 0-3.051 3.051-3.051 7.996 0 11.047 3.051 3.05 7.997 3.05 11.047 0z"/><path d="m238.59 87.74c3.051-3.051 3.051-7.996 0-11.047-3.05-3.05-7.996-3.05-11.047 0-3.051 3.051-3.051 7.996 0 11.047 3.05 3.05 7.996 3.05 11.047 0z"/></g></g></svg>