<?xml version="1.0"?>
<svg xmlns="http://www.w3.org/2000/svg" viewBox="0 0 64 64" width="512" height="512"><g id="Protector_Vest" data-name="Protector Vest"><path d="M59,56a13.934,13.934,0,0,0-7-12.12V19a1,1,0,0,0-1-1,7.008,7.008,0,0,1-7-7V3a1,1,0,0,0-1-1H36a.983.983,0,0,0-.82.43l-2,2.88a20.912,20.912,0,0,1-12.62-.37L18.82,2.43A.983.983,0,0,0,18,2H11a1,1,0,0,0-1,1v8a7.008,7.008,0,0,1-7,7,1,1,0,0,0-1,1V53a1,1,0,0,0,1,1H21a6.994,6.994,0,0,0,5.99-3.4,7.008,7.008,0,0,0,4.19,3.15A15.07,15.07,0,0,0,31,56a3,3,0,0,0,0,6H59a3,3,0,0,0,0-6ZM36.52,4H42v7a9.008,9.008,0,0,0,8,8.94V32H28V28H42a1,1,0,0,0,0-2H28V16.31ZM50,34v2H28V34ZM21,52H4V48H25.9A5.017,5.017,0,0,1,21,52Zm5-6H4V44H26Zm0-4H4V38H26Zm0-6H4V34H26Zm0-4H4V28H18a1,1,0,0,0,0-2H4V19.94A9.008,9.008,0,0,0,12,11V4h5.48L26,16.31ZM22.35,7.52a22.517,22.517,0,0,0,5.11.6,22.912,22.912,0,0,0,4.04-.37L27,14.24ZM28.11,48H32a1,1,0,0,0,0-2H28V44h8a1,1,0,0,0,0-2H28V38H50v4.93c-.34-.13-.69-.24-1.04-.35A3,3,0,0,0,46,40H44a3,3,0,0,0-2.96,2.58,13.893,13.893,0,0,0-9.39,9.22A4.954,4.954,0,0,1,28.11,48ZM59,60H31a1,1,0,0,1,0-2,1,1,0,0,0,2,0V56a11.942,11.942,0,0,1,5-9.75V49a1,1,0,0,0,2,0V45.09c.33-.15.66-.28,1-.4V51a1,1,0,0,0,2,0V43a1,1,0,0,1,1-1h2a1,1,0,0,1,1,1v8a1,1,0,0,0,2,0V44.69c.34.12.67.25,1,.4V49a1,1,0,0,0,2,0V46.25A11.942,11.942,0,0,1,57,56v2a1,1,0,0,0,2,0,1,1,0,0,1,0,2Z"/><path d="M55,56H48V55a2,2,0,0,0-2-2H44a2,2,0,0,0-2,2v1H36a1,1,0,0,0,0,2h7a1,1,0,0,0,1-1V55h2v2a1,1,0,0,0,1,1h8a1,1,0,0,0,0-2Z"/><path d="M46,28h1a1,1,0,0,0,0-2H46a1,1,0,0,0,0,2Z"/><path d="M22,28h1a1,1,0,0,0,0-2H22a1,1,0,0,0,0,2Z"/></g></svg>
