<svg id="Capa_1" enable-background="new 0 0 512 512" height="512" viewBox="0 0 512 512" width="512" xmlns="http://www.w3.org/2000/svg"><g><path d="m261.48 188.866c-3.159-2.68-7.892-2.291-10.57.867-2.68 3.159-2.292 7.892.867 10.571 6.71 5.692 15.615 8.828 25.075 8.828s18.365-3.135 25.075-8.828c3.159-2.68 3.547-7.413.867-10.571-2.678-3.157-7.412-3.546-10.57-.867-3.945 3.347-9.548 5.266-15.372 5.266s-11.426-1.919-15.372-5.266z"/><path d="m239.076 153.817c-.01 0-.02 0-.03 0-4.128 0-7.482 3.338-7.499 7.471-.017 4.142 3.328 7.513 7.471 7.529h.124.03c4.128 0 7.482-3.338 7.499-7.471.017-4.142-3.328-7.513-7.471-7.529z"/><path d="m317.366 168.817h.03.01.004c4.128 0 7.482-3.339 7.499-7.471.017-4.142-3.328-7.513-7.471-7.529h-.125c-.01 0-.02 0-.03 0-.003 0-.006 0-.01 0-.001 0-.002 0-.003 0-4.128 0-7.482 3.338-7.499 7.471-.017 4.142 3.328 7.513 7.471 7.529z"/><path d="m171.158 252.076c-3.945 3.347-9.549 5.267-15.372 5.267s-11.427-1.919-15.372-5.267c-3.159-2.68-7.891-2.291-10.57.867-2.68 3.159-2.292 7.892.867 10.571 6.71 5.693 15.615 8.828 25.075 8.828s18.365-3.135 25.075-8.828c3.159-2.68 3.547-7.413.867-10.571-2.678-3.157-7.412-3.546-10.57-.867z"/><path d="m196.42 217.03c-.021 0-.041-.003-.062-.003h-.005c-.003 0-.006 0-.009 0h-.109-.017c-.005 0-.009 0-.014 0-4.128 0-7.482 3.338-7.499 7.471-.016 3.894 2.941 7.105 6.737 7.489.07.007.142.006.212.012.173.013.345.028.521.028h.124.03.01.004c4.143 0 7.5-3.358 7.5-7.5.001-4.117-3.316-7.456-7.423-7.497z"/><path d="m118.134 217.027h-.124c-.01 0-.02 0-.03 0-4.128 0-7.482 3.338-7.499 7.471-.017 4.142 3.328 7.513 7.471 7.529h.124.03c4.128 0 7.482-3.338 7.499-7.471.016-4.142-3.329-7.513-7.471-7.529z"/><path d="m184.096 374.946c-11.307 0-20.505 9.199-20.505 20.506v38.404c0 11.308 9.198 20.507 20.505 20.507s20.506-9.199 20.506-20.507v-38.404c0-11.308-9.2-20.506-20.506-20.506zm5.506 58.909c0 3.037-2.47 5.507-5.506 5.507-3.035 0-5.505-2.47-5.505-5.507v-38.404c0-3.036 2.47-5.506 5.505-5.506 3.036 0 5.506 2.47 5.506 5.506z"/><path d="m485.047 237.229c-14.862 0-26.953 12.091-26.953 26.953v37.338c0 4.142 3.357 7.5 7.5 7.5s7.5-3.358 7.5-7.5v-37.338c0-6.591 5.362-11.953 11.953-11.953s11.953 5.363 11.953 11.953v136.696c0 6.591-5.362 11.954-11.953 11.954s-11.953-5.362-11.953-11.954v-62.331c0-4.142-3.357-7.5-7.5-7.5s-7.5 3.358-7.5 7.5v62.331c0 14.862 12.091 26.954 26.953 26.954s26.953-12.091 26.953-26.953v-136.697c0-14.861-12.091-26.953-26.953-26.953z"/><path d="m485.047 439.937c-14.862 0-26.953 12.129-26.953 27.037 0 14.862 12.091 26.954 26.953 26.954s26.953-12.092 26.953-26.954v-.169c0-14.815-12.091-26.868-26.953-26.868zm11.953 27.037c0 6.591-5.362 11.954-11.953 11.954s-11.953-5.362-11.953-11.954c0-6.637 5.362-12.037 11.953-12.037s11.953 5.323 11.953 11.867z"/><path d="m427.055 207.021h-19.874v-23.818c0-11.386-9.263-20.649-20.648-20.649h-20.004c-3.003-30.76-21.686-57.682-49.885-71.245-3.733-1.795-8.215-.226-10.01 3.508-1.796 3.733-.225 8.214 3.508 10.01 23.964 11.526 39.651 34.659 41.6 60.935-5.784 3.663-9.644 10.103-9.644 17.441v23.818h-19.874c-11.386 0-20.648 9.263-20.648 20.649v13.584c-7.499 2.504-15.332 3.783-23.347 3.783-11.24 0-22.37-2.586-32.392-7.487.035-1.01.053-2.021.053-3.032 0-26.852-11.991-50.954-30.898-67.238 4.533-3.791 7.425-9.482 7.425-15.84v-23.818h19.874c11.386 0 20.648-9.263 20.648-20.649v-7.786c4.766-1.004 9.644-1.538 14.556-1.586 4.142-.041 7.467-3.431 7.427-7.573-.041-4.117-3.391-7.427-7.498-7.427-.025 0-.051 0-.075 0-4.845.047-9.666.487-14.409 1.31v-.724c0-11.386-9.263-20.649-20.648-20.649h-19.874v-23.817c0-11.386-9.263-20.649-20.648-20.649h-23.786c-11.386 0-20.648 9.263-20.648 20.649v23.819h-19.874c-11.386 0-20.648 9.263-20.648 20.649v23.785c0 11.386 9.263 20.649 20.648 20.649h19.874v18.171c-.057 0-.114-.002-.171-.002-6.786 0-13.395.769-19.748 2.218-2.5-7.771-9.791-13.413-18.383-13.413h-17.089v-20.632c0-10.648-8.663-19.312-19.312-19.312h-21.367c-10.648 0-19.312 8.663-19.312 19.312v20.632h-17.089c-10.648 0-19.312 8.663-19.312 19.312v21.365c0 10.648 8.663 19.312 19.312 19.312h17.089v20.633c0 10.648 8.663 19.311 19.312 19.311h7.168c.003 25.466 10.793 48.456 28.036 64.651-4.937.927-10.899 2.7-17.212 6.02-13.778 7.224-24.972 19.368-33.317 36.088-8.818 4.007-14.969 12.892-14.969 23.193 0 4.391 1.117 8.527 3.083 12.136-2.091 9.82-3.588 20.576-4.471 32.111-1.341-.219-2.715-.338-4.117-.338-14.043-.002-25.467 11.422-25.467 25.464 0 31.12 25.317 56.438 56.438 56.438 17.108 0 32.45-7.662 42.809-19.723 14.381 2.786 30.1 4.45 46.826 4.952 10.039 9.169 23.388 14.771 38.023 14.771 18.619 0 35.154-9.068 45.44-23.014 9.333-2.468 17.96-5.451 25.782-8.914v6.462c0 14.042 11.424 25.466 25.466 25.466s25.466-11.424 25.466-25.466v-53.443c5.037-.409 9.978-.929 14.785-1.565v55.009c0 14.042 11.424 25.466 25.466 25.466s25.466-11.424 25.466-25.466v-10.61l14.807 23.988c4.676 7.57 12.776 12.089 21.67 12.089 2.352 0 4.691-.326 6.953-.969 10.9-3.094 18.513-13.168 18.513-24.498v-100.348c0-14.042-11.424-25.466-25.466-25.466-1.079 0-2.14.075-3.184.206-1.001-10.136-2.498-19.643-4.483-28.384 3.938-3.762 6.406-9.05 6.406-14.913v-23.819h19.874c11.386 0 20.648-9.263 20.648-20.649v-23.785c-.002-11.386-9.265-20.649-20.65-20.649zm-262.222-94.398h-27.374c-3.114 0-5.648-2.534-5.648-5.649v-23.785c0-3.115 2.534-5.649 5.648-5.649h27.374c4.143 0 7.5-3.358 7.5-7.5v-31.319c0-3.115 2.534-5.649 5.648-5.649h23.786c3.114 0 5.648 2.534 5.648 5.649v31.319c0 4.142 3.357 7.5 7.5 7.5h27.374c3.114 0 5.648 2.534 5.648 5.649v23.785c0 3.115-2.534 5.649-5.648 5.649h-27.374c-4.143 0-7.5 3.358-7.5 7.5v31.318c0 3.115-2.534 5.649-5.648 5.649h-1.322c-8.594-4.823-18.066-8.258-28.113-9.996v-26.971c.001-4.142-3.356-7.5-7.499-7.5zm-107.879 102.594v-28.133c0-4.142-3.357-7.5-7.5-7.5h-24.589c-2.377 0-4.312-1.934-4.312-4.312v-21.365c0-2.377 1.935-4.312 4.312-4.312h24.589c4.143 0 7.5-3.358 7.5-7.5v-28.132c0-2.377 1.935-4.312 4.312-4.312h21.365c2.377 0 4.312 1.934 4.312 4.312v28.132c0 4.142 3.357 7.5 7.5 7.5h24.589c1.914 0 3.522 1.262 4.083 2.992-27.631 11.525-48.229 36.635-53.408 66.94h-8.441c-2.377.001-4.312-1.933-4.312-4.31zm-.516 174.729h5.505v43.91c0 3.037-2.47 5.507-5.505 5.507-3.036 0-5.506-2.47-5.506-5.507 0-6.688-2.595-12.778-6.826-17.326.543-10.093 1.552-19.584 3.018-28.355 2.887 1.138 6.027 1.771 9.314 1.771zm0 85.348c-22.849 0-41.438-18.59-41.438-41.439 0-5.771 4.695-10.466 10.466-10.466s10.466 4.695 10.466 10.466c0 11.308 9.199 20.507 20.506 20.507s20.505-9.199 20.505-20.507v-51.41c0-4.142-3.357-7.5-7.5-7.5h-13.005c-5.771 0-10.466-4.695-10.466-10.466s4.695-10.466 10.466-10.466h30.971c5.771 0 10.466 4.695 10.466 10.466v69.375c-.001 22.85-18.589 41.44-41.437 41.44zm127.658 0c-22.849 0-41.437-18.589-41.437-41.438v-38.404c0-22.849 18.588-41.438 41.437-41.438s41.438 18.589 41.438 41.438v38.404c-.001 22.848-18.59 41.438-41.438 41.438zm54.386-26.399c1.327-4.792 2.051-9.832 2.051-15.04v-38.404c0-31.12-25.317-56.438-56.438-56.438-31.119 0-56.437 25.318-56.437 56.438v38.404c0 9.4 2.323 18.264 6.405 26.068-9.119-.627-17.845-1.641-26.128-3.025 3.163-7.042 4.938-14.836 4.938-23.043v-69.375c0-14.042-11.424-25.466-25.466-25.466h-22.921c6.059-9.238 13.338-16.127 21.745-20.535 11.648-6.126 21.487-5.224 21.527-5.219.289.034.58.051.871.051h7.768c12.214 6.344 26.077 9.936 40.765 9.936 14.303 0 28.265-3.485 40.742-9.936h7.786c.291 0 .522-.01.813-.044.096-.011 9.938-.915 21.599 5.213 12.454 6.542 22.384 18.436 29.556 35.355-1.498 3.241-2.34 6.845-2.34 10.644v77.289c-5.139 2.627-10.76 5.009-16.836 7.127zm52.767 15.933c0 5.771-4.695 10.466-10.466 10.466s-10.466-4.695-10.466-10.466v-100.348c0-5.771 4.695-10.466 10.466-10.466s10.466 4.695 10.466 10.466zm127.659-100.348v100.348c0 4.656-3.129 8.796-7.611 10.069-.93.264-1.891.398-2.854.398-3.655 0-6.985-1.859-8.907-4.97l-28.688-46.477c-1.391-2.253-3.829-3.561-6.382-3.561-.68 0-1.369.093-2.048.285-3.226.916-5.452 3.862-5.452 7.215v37.041c0 5.771-4.695 10.466-10.466 10.466s-10.466-4.695-10.466-10.466v-100.348c0-4.656 3.129-8.796 7.612-10.069 4.473-1.271 9.311.608 11.76 4.572l28.688 46.478c1.761 2.854 5.202 4.191 8.43 3.276 3.226-.916 5.452-3.862 5.452-7.215v-37.042c0-5.771 4.695-10.466 10.466-10.466s10.466 4.695 10.466 10.466zm-28.095-18.351c-4.824 4.637-7.836 11.147-7.836 18.351v10.611l-14.808-23.99c-5.959-9.645-17.729-14.216-28.622-11.119-10.9 3.094-18.513 13.167-18.513 24.498v30.199c-4.793.672-9.726 1.235-14.785 1.666v-31.865c0-14.042-11.424-25.466-25.466-25.466-4.348 0-8.444 1.098-12.029 3.027-8.357-17.091-19.649-29.471-33.675-36.839-6.301-3.311-12.25-5.085-17.18-6.015 1.758-1.65 3.456-3.374 5.085-5.175 2.778-3.072 2.54-7.815-.532-10.593-3.07-2.777-7.814-2.54-10.593.532-13.964 15.441-33.9 24.296-54.697 24.296-40.654 0-73.729-33.074-73.729-73.728 0-40.653 33.074-73.728 73.729-73.728 40.653 0 73.728 33.074 73.728 73.728 0 6.811-.95 13.606-2.823 20.196-1.133 3.984 1.179 8.132 5.163 9.265 3.983 1.132 8.132-1.18 9.265-5.164.534-1.88 1.001-3.774 1.41-5.679 10.813 4.527 22.522 6.899 34.324 6.899 8.21 0 16.265-1.122 24.053-3.314 2.338 8.838 10.379 15.381 19.942 15.381h19.874v23.819c0 11.386 9.264 20.649 20.649 20.649h23.785c.046 0 .091-.007.137-.007 1.92 9.03 3.309 18.932 4.144 29.565zm41.89-94.674c0 3.115-2.534 5.649-5.648 5.649h-27.374c-4.143 0-7.5 3.358-7.5 7.5v31.319c0 3.115-2.534 5.649-5.648 5.649h-23.785c-3.115 0-5.649-2.534-5.649-5.649v-31.319c0-4.142-3.357-7.5-7.5-7.5h-27.374c-3.114 0-5.648-2.534-5.648-5.649v-23.785c0-3.115 2.534-5.649 5.648-5.649h27.374c4.143 0 7.5-3.358 7.5-7.5v-31.318c0-3.115 2.534-5.649 5.649-5.649h23.785c3.114 0 5.648 2.534 5.648 5.649v31.318c0 4.142 3.357 7.5 7.5 7.5h27.374c3.114 0 5.648 2.534 5.648 5.649z"/></g></svg>